<mxfile host="app.diagrams.net" modified="2023-07-16T15:47:40.126Z" agent="Mozilla/5.0 (Windows NT 10.0; Win64; x64) AppleWebKit/537.36 (KHTML, like Gecko) Chrome/114.0.0.0 Safari/537.36" etag="vU0nK7rF86ZDtHAMEFCX" version="21.6.1" type="github">
  <diagram id="C5RBs43oDa-KdzZeNtuy" name="Page-1">
    <mxGraphModel dx="2074" dy="1156" grid="1" gridSize="10" guides="1" tooltips="1" connect="1" arrows="1" fold="1" page="1" pageScale="1" pageWidth="827" pageHeight="1169" math="0" shadow="0">
      <root>
        <mxCell id="WIyWlLk6GJQsqaUBKTNV-0" />
        <mxCell id="WIyWlLk6GJQsqaUBKTNV-1" parent="WIyWlLk6GJQsqaUBKTNV-0" />
        <mxCell id="aU86HzHLtQyPdirgO_ri-1" style="edgeStyle=orthogonalEdgeStyle;rounded=0;sketch=1;hachureGap=4;jiggle=2;curveFitting=1;orthogonalLoop=1;jettySize=auto;html=1;exitX=0.5;exitY=1;exitDx=0;exitDy=0;fontFamily=Architects Daughter;fontSource=https%3A%2F%2Ffonts.googleapis.com%2Fcss%3Ffamily%3DArchitects%2BDaughter;fontSize=16;" edge="1" parent="WIyWlLk6GJQsqaUBKTNV-1" source="aU86HzHLtQyPdirgO_ri-0">
          <mxGeometry relative="1" as="geometry">
            <mxPoint x="335" y="270" as="targetPoint" />
          </mxGeometry>
        </mxCell>
        <mxCell id="aU86HzHLtQyPdirgO_ri-0" value="上传素材资产" style="rounded=0;whiteSpace=wrap;html=1;sketch=1;hachureGap=4;jiggle=2;curveFitting=1;fontFamily=Architects Daughter;fontSource=https%3A%2F%2Ffonts.googleapis.com%2Fcss%3Ffamily%3DArchitects%2BDaughter;fontSize=20;" vertex="1" parent="WIyWlLk6GJQsqaUBKTNV-1">
          <mxGeometry x="260" y="140" width="150" height="60" as="geometry" />
        </mxCell>
        <mxCell id="aU86HzHLtQyPdirgO_ri-5" style="edgeStyle=orthogonalEdgeStyle;rounded=0;sketch=1;hachureGap=4;jiggle=2;curveFitting=1;orthogonalLoop=1;jettySize=auto;html=1;entryX=0.5;entryY=0;entryDx=0;entryDy=0;fontFamily=Architects Daughter;fontSource=https%3A%2F%2Ffonts.googleapis.com%2Fcss%3Ffamily%3DArchitects%2BDaughter;fontSize=16;" edge="1" parent="WIyWlLk6GJQsqaUBKTNV-1" source="aU86HzHLtQyPdirgO_ri-3" target="aU86HzHLtQyPdirgO_ri-4">
          <mxGeometry relative="1" as="geometry" />
        </mxCell>
        <mxCell id="aU86HzHLtQyPdirgO_ri-3" value="云函数(dam-demo)" style="rounded=0;whiteSpace=wrap;html=1;sketch=1;hachureGap=4;jiggle=2;curveFitting=1;fontFamily=Architects Daughter;fontSource=https%3A%2F%2Ffonts.googleapis.com%2Fcss%3Ffamily%3DArchitects%2BDaughter;fontSize=20;" vertex="1" parent="WIyWlLk6GJQsqaUBKTNV-1">
          <mxGeometry x="260" y="270" width="150" height="50" as="geometry" />
        </mxCell>
        <mxCell id="aU86HzHLtQyPdirgO_ri-7" style="edgeStyle=orthogonalEdgeStyle;rounded=0;sketch=1;hachureGap=4;jiggle=2;curveFitting=1;orthogonalLoop=1;jettySize=auto;html=1;fontFamily=Architects Daughter;fontSource=https%3A%2F%2Ffonts.googleapis.com%2Fcss%3Ffamily%3DArchitects%2BDaughter;fontSize=16;" edge="1" parent="WIyWlLk6GJQsqaUBKTNV-1" source="aU86HzHLtQyPdirgO_ri-4" target="aU86HzHLtQyPdirgO_ri-6">
          <mxGeometry relative="1" as="geometry" />
        </mxCell>
        <mxCell id="aU86HzHLtQyPdirgO_ri-8" value="图片" style="edgeLabel;html=1;align=center;verticalAlign=middle;resizable=0;points=[];fontSize=20;fontFamily=Architects Daughter;" vertex="1" connectable="0" parent="aU86HzHLtQyPdirgO_ri-7">
          <mxGeometry x="0.2459" y="-3" relative="1" as="geometry">
            <mxPoint as="offset" />
          </mxGeometry>
        </mxCell>
        <mxCell id="aU86HzHLtQyPdirgO_ri-11" style="edgeStyle=orthogonalEdgeStyle;rounded=0;sketch=1;hachureGap=4;jiggle=2;curveFitting=1;orthogonalLoop=1;jettySize=auto;html=1;fontFamily=Architects Daughter;fontSource=https%3A%2F%2Ffonts.googleapis.com%2Fcss%3Ffamily%3DArchitects%2BDaughter;fontSize=16;" edge="1" parent="WIyWlLk6GJQsqaUBKTNV-1" source="aU86HzHLtQyPdirgO_ri-4" target="aU86HzHLtQyPdirgO_ri-12">
          <mxGeometry relative="1" as="geometry">
            <mxPoint x="601" y="570" as="targetPoint" />
          </mxGeometry>
        </mxCell>
        <mxCell id="aU86HzHLtQyPdirgO_ri-13" value="视频" style="edgeLabel;html=1;align=center;verticalAlign=middle;resizable=0;points=[];fontSize=20;fontFamily=Architects Daughter;" vertex="1" connectable="0" parent="aU86HzHLtQyPdirgO_ri-11">
          <mxGeometry x="-0.3816" y="-1" relative="1" as="geometry">
            <mxPoint x="1" as="offset" />
          </mxGeometry>
        </mxCell>
        <mxCell id="aU86HzHLtQyPdirgO_ri-20" style="edgeStyle=orthogonalEdgeStyle;rounded=0;sketch=1;hachureGap=4;jiggle=2;curveFitting=1;orthogonalLoop=1;jettySize=auto;html=1;exitX=0;exitY=0.5;exitDx=0;exitDy=0;entryX=0;entryY=0.5;entryDx=0;entryDy=0;fontFamily=Architects Daughter;fontSource=https%3A%2F%2Ffonts.googleapis.com%2Fcss%3Ffamily%3DArchitects%2BDaughter;fontSize=16;" edge="1" parent="WIyWlLk6GJQsqaUBKTNV-1" source="aU86HzHLtQyPdirgO_ri-4" target="aU86HzHLtQyPdirgO_ri-9">
          <mxGeometry relative="1" as="geometry">
            <Array as="points">
              <mxPoint x="201" y="414" />
              <mxPoint x="201" y="925" />
            </Array>
          </mxGeometry>
        </mxCell>
        <mxCell id="aU86HzHLtQyPdirgO_ri-21" value="txt文件" style="edgeLabel;html=1;align=center;verticalAlign=middle;resizable=0;points=[];fontSize=20;fontFamily=Architects Daughter;" vertex="1" connectable="0" parent="aU86HzHLtQyPdirgO_ri-20">
          <mxGeometry x="-0.6572" y="-1" relative="1" as="geometry">
            <mxPoint y="1" as="offset" />
          </mxGeometry>
        </mxCell>
        <mxCell id="aU86HzHLtQyPdirgO_ri-4" value="素材类型" style="rhombus;whiteSpace=wrap;html=1;sketch=1;hachureGap=4;jiggle=2;curveFitting=1;fontFamily=Architects Daughter;fontSource=https%3A%2F%2Ffonts.googleapis.com%2Fcss%3Ffamily%3DArchitects%2BDaughter;fontSize=20;" vertex="1" parent="WIyWlLk6GJQsqaUBKTNV-1">
          <mxGeometry x="274.5" y="364" width="121" height="100" as="geometry" />
        </mxCell>
        <mxCell id="aU86HzHLtQyPdirgO_ri-10" value="" style="edgeStyle=orthogonalEdgeStyle;rounded=0;sketch=1;hachureGap=4;jiggle=2;curveFitting=1;orthogonalLoop=1;jettySize=auto;html=1;fontFamily=Architects Daughter;fontSource=https%3A%2F%2Ffonts.googleapis.com%2Fcss%3Ffamily%3DArchitects%2BDaughter;fontSize=16;" edge="1" parent="WIyWlLk6GJQsqaUBKTNV-1" source="aU86HzHLtQyPdirgO_ri-6" target="aU86HzHLtQyPdirgO_ri-9">
          <mxGeometry relative="1" as="geometry" />
        </mxCell>
        <mxCell id="aU86HzHLtQyPdirgO_ri-6" value="执行素材压缩，元数据提取，打标，审核等操作" style="rounded=0;whiteSpace=wrap;html=1;sketch=1;hachureGap=4;jiggle=2;curveFitting=1;fontFamily=Architects Daughter;fontSource=https%3A%2F%2Ffonts.googleapis.com%2Fcss%3Ffamily%3DArchitects%2BDaughter;fontSize=20;" vertex="1" parent="WIyWlLk6GJQsqaUBKTNV-1">
          <mxGeometry x="255" y="620" width="160" height="105" as="geometry" />
        </mxCell>
        <mxCell id="aU86HzHLtQyPdirgO_ri-9" value="回调callback" style="rounded=0;whiteSpace=wrap;html=1;sketch=1;hachureGap=4;jiggle=2;curveFitting=1;fontFamily=Architects Daughter;fontSource=https%3A%2F%2Ffonts.googleapis.com%2Fcss%3Ffamily%3DArchitects%2BDaughter;fontSize=20;" vertex="1" parent="WIyWlLk6GJQsqaUBKTNV-1">
          <mxGeometry x="267" y="890" width="136" height="70" as="geometry" />
        </mxCell>
        <mxCell id="aU86HzHLtQyPdirgO_ri-15" value="" style="edgeStyle=orthogonalEdgeStyle;rounded=0;sketch=1;hachureGap=4;jiggle=2;curveFitting=1;orthogonalLoop=1;jettySize=auto;html=1;fontFamily=Architects Daughter;fontSource=https%3A%2F%2Ffonts.googleapis.com%2Fcss%3Ffamily%3DArchitects%2BDaughter;fontSize=16;" edge="1" parent="WIyWlLk6GJQsqaUBKTNV-1" source="aU86HzHLtQyPdirgO_ri-12" target="aU86HzHLtQyPdirgO_ri-14">
          <mxGeometry relative="1" as="geometry" />
        </mxCell>
        <mxCell id="aU86HzHLtQyPdirgO_ri-12" value="工作流(压缩，审核，打标)" style="rounded=0;whiteSpace=wrap;html=1;sketch=1;hachureGap=4;jiggle=2;curveFitting=1;fontFamily=Architects Daughter;fontSource=https%3A%2F%2Ffonts.googleapis.com%2Fcss%3Ffamily%3DArchitects%2BDaughter;fontSize=20;" vertex="1" parent="WIyWlLk6GJQsqaUBKTNV-1">
          <mxGeometry x="551" y="480" width="120" height="90" as="geometry" />
        </mxCell>
        <mxCell id="aU86HzHLtQyPdirgO_ri-18" value="" style="edgeStyle=orthogonalEdgeStyle;rounded=0;sketch=1;hachureGap=4;jiggle=2;curveFitting=1;orthogonalLoop=1;jettySize=auto;html=1;fontFamily=Architects Daughter;fontSource=https%3A%2F%2Ffonts.googleapis.com%2Fcss%3Ffamily%3DArchitects%2BDaughter;fontSize=16;" edge="1" parent="WIyWlLk6GJQsqaUBKTNV-1" source="aU86HzHLtQyPdirgO_ri-14" target="aU86HzHLtQyPdirgO_ri-17">
          <mxGeometry relative="1" as="geometry" />
        </mxCell>
        <mxCell id="aU86HzHLtQyPdirgO_ri-14" value="API网关" style="whiteSpace=wrap;html=1;fontSize=20;fontFamily=Architects Daughter;rounded=0;sketch=1;hachureGap=4;jiggle=2;curveFitting=1;fontSource=https%3A%2F%2Ffonts.googleapis.com%2Fcss%3Ffamily%3DArchitects%2BDaughter;" vertex="1" parent="WIyWlLk6GJQsqaUBKTNV-1">
          <mxGeometry x="551" y="620" width="120" height="60" as="geometry" />
        </mxCell>
        <mxCell id="aU86HzHLtQyPdirgO_ri-19" style="edgeStyle=orthogonalEdgeStyle;rounded=0;sketch=1;hachureGap=4;jiggle=2;curveFitting=1;orthogonalLoop=1;jettySize=auto;html=1;exitX=0.5;exitY=1;exitDx=0;exitDy=0;entryX=1;entryY=0.5;entryDx=0;entryDy=0;fontFamily=Architects Daughter;fontSource=https%3A%2F%2Ffonts.googleapis.com%2Fcss%3Ffamily%3DArchitects%2BDaughter;fontSize=16;" edge="1" parent="WIyWlLk6GJQsqaUBKTNV-1" source="aU86HzHLtQyPdirgO_ri-17" target="aU86HzHLtQyPdirgO_ri-9">
          <mxGeometry relative="1" as="geometry" />
        </mxCell>
        <mxCell id="aU86HzHLtQyPdirgO_ri-17" value="&lt;font style=&quot;font-size: 18px;&quot;&gt;云函数(helloworld-1669873808&lt;br&gt;)&lt;/font&gt;" style="whiteSpace=wrap;html=1;fontSize=20;fontFamily=Architects Daughter;rounded=0;sketch=1;hachureGap=4;jiggle=2;curveFitting=1;fontSource=https%3A%2F%2Ffonts.googleapis.com%2Fcss%3Ffamily%3DArchitects%2BDaughter;" vertex="1" parent="WIyWlLk6GJQsqaUBKTNV-1">
          <mxGeometry x="526" y="760" width="170" height="80" as="geometry" />
        </mxCell>
      </root>
    </mxGraphModel>
  </diagram>
</mxfile>
